<mxfile host="app.diagrams.net" modified="2023-10-19T04:38:16.413Z" agent="Mozilla/5.0 (Windows NT 10.0; Win64; x64) AppleWebKit/537.36 (KHTML, like Gecko) Chrome/118.0.0.0 Safari/537.36" etag="6YUvGtZkcyeKWSIjBMtn" version="22.0.4" type="device">
  <diagram name="Page-1" id="IiBHPubRIJhhDQsWKsMC">
    <mxGraphModel dx="792" dy="1132" grid="1" gridSize="10" guides="1" tooltips="1" connect="1" arrows="1" fold="1" page="1" pageScale="1" pageWidth="850" pageHeight="1100" math="0" shadow="0">
      <root>
        <mxCell id="0" />
        <mxCell id="1" parent="0" />
        <mxCell id="DzXna4c_Wik_IqMQuETI-1" value="" style="whiteSpace=wrap;html=1;aspect=fixed;" parent="1" vertex="1">
          <mxGeometry x="30" y="210" width="180" height="180" as="geometry" />
        </mxCell>
        <mxCell id="DzXna4c_Wik_IqMQuETI-2" value="" style="whiteSpace=wrap;html=1;aspect=fixed;" parent="1" vertex="1">
          <mxGeometry x="748.59" y="210" width="180" height="180" as="geometry" />
        </mxCell>
        <mxCell id="DzXna4c_Wik_IqMQuETI-3" value="" style="whiteSpace=wrap;html=1;aspect=fixed;" parent="1" vertex="1">
          <mxGeometry x="270" y="210" width="180" height="180" as="geometry" />
        </mxCell>
        <mxCell id="DzXna4c_Wik_IqMQuETI-4" value="" style="whiteSpace=wrap;html=1;aspect=fixed;" parent="1" vertex="1">
          <mxGeometry x="504.75" y="210" width="180" height="180" as="geometry" />
        </mxCell>
        <mxCell id="DzXna4c_Wik_IqMQuETI-6" value="" style="whiteSpace=wrap;html=1;aspect=fixed;" parent="1" vertex="1">
          <mxGeometry x="1230" y="210" width="180" height="180" as="geometry" />
        </mxCell>
        <mxCell id="DzXna4c_Wik_IqMQuETI-7" value="" style="whiteSpace=wrap;html=1;aspect=fixed;" parent="1" vertex="1">
          <mxGeometry x="990" y="210" width="180" height="180" as="geometry" />
        </mxCell>
        <mxCell id="DzXna4c_Wik_IqMQuETI-8" value="" style="endArrow=classic;startArrow=classic;html=1;rounded=0;exitX=1;exitY=0.5;exitDx=0;exitDy=0;entryX=0;entryY=0.5;entryDx=0;entryDy=0;" parent="1" source="DzXna4c_Wik_IqMQuETI-1" target="DzXna4c_Wik_IqMQuETI-3" edge="1">
          <mxGeometry width="50" height="50" relative="1" as="geometry">
            <mxPoint x="230" y="320" as="sourcePoint" />
            <mxPoint x="240" y="330" as="targetPoint" />
          </mxGeometry>
        </mxCell>
        <mxCell id="DzXna4c_Wik_IqMQuETI-9" value="&lt;font style=&quot;background-color: rgb(0, 0, 0); font-size: 23px;&quot; color=&quot;#ffffff&quot;&gt;Master Mode&lt;/font&gt;" style="text;align=center;html=1;verticalAlign=middle;whiteSpace=wrap;rounded=0;fillColor=#000000;strokeColor=#ae4132;" parent="1" vertex="1">
          <mxGeometry x="600.92" y="120" width="215" height="40" as="geometry" />
        </mxCell>
        <mxCell id="DzXna4c_Wik_IqMQuETI-11" value="&lt;font style=&quot;background-color: rgb(0, 0, 0); font-size: 36px;&quot; color=&quot;#ffffff&quot;&gt;Host&lt;/font&gt;" style="text;align=center;html=1;verticalAlign=middle;whiteSpace=wrap;rounded=0;fillColor=#000000;strokeColor=#ae4132;fontSize=36;" parent="1" vertex="1">
          <mxGeometry x="42.81" y="261.25" width="154.37" height="77.5" as="geometry" />
        </mxCell>
        <mxCell id="DzXna4c_Wik_IqMQuETI-13" value="&lt;font style=&quot;background-color: rgb(0, 0, 0); font-size: 21px;&quot; color=&quot;#ffffff&quot;&gt;Command Encoder/Decoder&lt;/font&gt;" style="text;align=center;html=1;verticalAlign=middle;whiteSpace=wrap;rounded=0;fillColor=#000000;strokeColor=#ae4132;" parent="1" vertex="1">
          <mxGeometry x="508.53000000000003" y="261.25" width="172.43" height="78.75" as="geometry" />
        </mxCell>
        <mxCell id="DzXna4c_Wik_IqMQuETI-14" value="&lt;font style=&quot;background-color: rgb(0, 0, 0); font-size: 24px;&quot; color=&quot;#ffffff&quot;&gt;UART TX/RX&lt;/font&gt;" style="text;align=center;html=1;verticalAlign=middle;whiteSpace=wrap;rounded=0;fillColor=#000000;strokeColor=#ae4132;" parent="1" vertex="1">
          <mxGeometry x="282.81" y="261.25" width="154.37" height="77.5" as="geometry" />
        </mxCell>
        <mxCell id="DzXna4c_Wik_IqMQuETI-17" value="&lt;font style=&quot;background-color: rgb(0, 0, 0); font-size: 24px;&quot; color=&quot;#ffffff&quot;&gt;&lt;font style=&quot;font-size: 24px;&quot;&gt;Encryption/&lt;br&gt;Decryption&lt;/font&gt;&lt;br&gt;&lt;/font&gt;" style="text;align=center;html=1;verticalAlign=middle;whiteSpace=wrap;rounded=0;fillColor=#000000;strokeColor=#ae4132;" parent="1" vertex="1">
          <mxGeometry x="761.4100000000001" y="261.25" width="154.37" height="77.5" as="geometry" />
        </mxCell>
        <mxCell id="DzXna4c_Wik_IqMQuETI-18" value="&lt;font style=&quot;font-size: 20px;&quot; color=&quot;#ffffff&quot;&gt;Bluetooth Command Encoder/Decoder&lt;/font&gt;" style="text;align=center;html=1;verticalAlign=middle;whiteSpace=wrap;rounded=0;fillColor=#000000;strokeColor=#ae4132;" parent="1" vertex="1">
          <mxGeometry x="1002.81" y="261.25" width="154.37" height="77.5" as="geometry" />
        </mxCell>
        <mxCell id="DzXna4c_Wik_IqMQuETI-20" value="&lt;font style=&quot;background-color: rgb(0, 0, 0); font-size: 22px;&quot; color=&quot;#ffffff&quot;&gt;Bluetooth Interface (SPI/I2C)&lt;/font&gt;" style="text;align=center;html=1;verticalAlign=middle;whiteSpace=wrap;rounded=0;fillColor=#000000;strokeColor=#ae4132;" parent="1" vertex="1">
          <mxGeometry x="1242.8100000000002" y="261.25" width="154.37" height="77.5" as="geometry" />
        </mxCell>
        <mxCell id="DzXna4c_Wik_IqMQuETI-23" value="&lt;font style=&quot;background-color: rgb(0, 0, 0); font-size: 24px;&quot; color=&quot;#ffffff&quot;&gt;Slave Mode&lt;/font&gt;" style="text;align=center;html=1;verticalAlign=middle;whiteSpace=wrap;rounded=0;fillColor=#000000;strokeColor=#ae4132;" parent="1" vertex="1">
          <mxGeometry x="600.92" y="610" width="215" height="40" as="geometry" />
        </mxCell>
        <mxCell id="DzXna4c_Wik_IqMQuETI-27" value="" style="whiteSpace=wrap;html=1;aspect=fixed;" parent="1" vertex="1">
          <mxGeometry x="1098.43" y="710" width="180" height="180" as="geometry" />
        </mxCell>
        <mxCell id="DzXna4c_Wik_IqMQuETI-30" value="&lt;font style=&quot;background-color: rgb(0, 0, 0); font-size: 25px;&quot; color=&quot;#ffffff&quot;&gt;IMU Interface (SPI/I2C)&lt;/font&gt;" style="text;align=center;html=1;verticalAlign=middle;whiteSpace=wrap;rounded=0;fillColor=#000000;strokeColor=#ae4132;" parent="1" vertex="1">
          <mxGeometry x="1111.25" y="761.25" width="154.37" height="77.5" as="geometry" />
        </mxCell>
        <mxCell id="DzXna4c_Wik_IqMQuETI-45" value="TX" style="text;strokeColor=none;align=center;fillColor=none;html=1;verticalAlign=middle;whiteSpace=wrap;rounded=0;fontSize=22;" parent="1" vertex="1">
          <mxGeometry x="630.3699999999998" y="430" width="71.87" height="40" as="geometry" />
        </mxCell>
        <mxCell id="DzXna4c_Wik_IqMQuETI-46" value="" style="shape=flexArrow;endArrow=classic;html=1;rounded=0;" parent="1" edge="1">
          <mxGeometry width="50" height="50" relative="1" as="geometry">
            <mxPoint x="701.2999999999998" y="450" as="sourcePoint" />
            <mxPoint x="772.5499999999998" y="450" as="targetPoint" />
          </mxGeometry>
        </mxCell>
        <mxCell id="DzXna4c_Wik_IqMQuETI-48" value="RX" style="text;strokeColor=none;align=center;fillColor=none;html=1;verticalAlign=middle;whiteSpace=wrap;rounded=0;fontSize=22;" parent="1" vertex="1">
          <mxGeometry x="714.5899999999998" y="480" width="71.87" height="40" as="geometry" />
        </mxCell>
        <mxCell id="DzXna4c_Wik_IqMQuETI-49" value="" style="shape=flexArrow;endArrow=classic;html=1;rounded=0;" parent="1" edge="1">
          <mxGeometry width="50" height="50" relative="1" as="geometry">
            <mxPoint x="717.7099999999999" y="500" as="sourcePoint" />
            <mxPoint x="647.7099999999999" y="500" as="targetPoint" />
          </mxGeometry>
        </mxCell>
        <mxCell id="DzXna4c_Wik_IqMQuETI-50" value="RX" style="text;strokeColor=none;align=center;fillColor=none;html=1;verticalAlign=middle;whiteSpace=wrap;rounded=0;fontSize=22;" parent="1" vertex="1">
          <mxGeometry x="625.1199999999998" y="910" width="71.87" height="40" as="geometry" />
        </mxCell>
        <mxCell id="DzXna4c_Wik_IqMQuETI-51" value="" style="shape=flexArrow;endArrow=classic;html=1;rounded=0;" parent="1" edge="1">
          <mxGeometry width="50" height="50" relative="1" as="geometry">
            <mxPoint x="696.0499999999998" y="930" as="sourcePoint" />
            <mxPoint x="767.2999999999998" y="930" as="targetPoint" />
          </mxGeometry>
        </mxCell>
        <mxCell id="DzXna4c_Wik_IqMQuETI-52" value="TX" style="text;strokeColor=none;align=center;fillColor=none;html=1;verticalAlign=middle;whiteSpace=wrap;rounded=0;fontSize=22;" parent="1" vertex="1">
          <mxGeometry x="709.3399999999998" y="960" width="71.87" height="40" as="geometry" />
        </mxCell>
        <mxCell id="DzXna4c_Wik_IqMQuETI-53" value="" style="shape=flexArrow;endArrow=classic;html=1;rounded=0;" parent="1" edge="1">
          <mxGeometry width="50" height="50" relative="1" as="geometry">
            <mxPoint x="712.4599999999998" y="980" as="sourcePoint" />
            <mxPoint x="642.4599999999999" y="980" as="targetPoint" />
          </mxGeometry>
        </mxCell>
        <mxCell id="K-1_S2nW1a9H5zbyPy-N-1" value="" style="endArrow=classic;startArrow=classic;html=1;rounded=0;entryX=0;entryY=0.5;entryDx=0;entryDy=0;exitX=1;exitY=0.5;exitDx=0;exitDy=0;" edge="1" parent="1" source="DzXna4c_Wik_IqMQuETI-3" target="DzXna4c_Wik_IqMQuETI-4">
          <mxGeometry width="50" height="50" relative="1" as="geometry">
            <mxPoint x="480" y="320" as="sourcePoint" />
            <mxPoint x="490" y="330" as="targetPoint" />
          </mxGeometry>
        </mxCell>
        <mxCell id="K-1_S2nW1a9H5zbyPy-N-2" value="" style="endArrow=classic;startArrow=classic;html=1;rounded=0;entryX=0;entryY=0.5;entryDx=0;entryDy=0;exitX=1;exitY=0.5;exitDx=0;exitDy=0;" edge="1" parent="1" source="DzXna4c_Wik_IqMQuETI-4" target="DzXna4c_Wik_IqMQuETI-2">
          <mxGeometry width="50" height="50" relative="1" as="geometry">
            <mxPoint x="710" y="330" as="sourcePoint" />
            <mxPoint x="720" y="330" as="targetPoint" />
          </mxGeometry>
        </mxCell>
        <mxCell id="K-1_S2nW1a9H5zbyPy-N-3" value="" style="endArrow=classic;startArrow=classic;html=1;rounded=0;exitX=1;exitY=0.5;exitDx=0;exitDy=0;entryX=0;entryY=0.5;entryDx=0;entryDy=0;" edge="1" parent="1" source="DzXna4c_Wik_IqMQuETI-7" target="DzXna4c_Wik_IqMQuETI-6">
          <mxGeometry width="50" height="50" relative="1" as="geometry">
            <mxPoint x="1200" y="320" as="sourcePoint" />
            <mxPoint x="1200" y="340" as="targetPoint" />
          </mxGeometry>
        </mxCell>
        <mxCell id="K-1_S2nW1a9H5zbyPy-N-4" value="" style="endArrow=classic;startArrow=classic;html=1;rounded=0;exitX=1;exitY=0.5;exitDx=0;exitDy=0;entryX=0;entryY=0.5;entryDx=0;entryDy=0;" edge="1" parent="1" source="DzXna4c_Wik_IqMQuETI-2" target="DzXna4c_Wik_IqMQuETI-7">
          <mxGeometry width="50" height="50" relative="1" as="geometry">
            <mxPoint x="950" y="320" as="sourcePoint" />
            <mxPoint x="970" y="320" as="targetPoint" />
          </mxGeometry>
        </mxCell>
        <mxCell id="K-1_S2nW1a9H5zbyPy-N-5" value="" style="endArrow=classic;startArrow=classic;html=1;rounded=0;exitX=1;exitY=0.5;exitDx=0;exitDy=0;entryX=0;entryY=0.5;entryDx=0;entryDy=0;" edge="1" parent="1" source="K-1_S2nW1a9H5zbyPy-N-15" target="DzXna4c_Wik_IqMQuETI-27">
          <mxGeometry width="50" height="50" relative="1" as="geometry">
            <mxPoint x="1038.43" y="799.5" as="sourcePoint" />
            <mxPoint x="1098.43" y="799.5" as="targetPoint" />
          </mxGeometry>
        </mxCell>
        <mxCell id="K-1_S2nW1a9H5zbyPy-N-6" value="" style="endArrow=classic;startArrow=classic;html=1;rounded=0;exitX=1;exitY=0.5;exitDx=0;exitDy=0;entryX=0;entryY=0.5;entryDx=0;entryDy=0;" edge="1" parent="1" source="K-1_S2nW1a9H5zbyPy-N-13" target="K-1_S2nW1a9H5zbyPy-N-15">
          <mxGeometry width="50" height="50" relative="1" as="geometry">
            <mxPoint x="797.01" y="799.5" as="sourcePoint" />
            <mxPoint x="857.01" y="799.5" as="targetPoint" />
          </mxGeometry>
        </mxCell>
        <mxCell id="K-1_S2nW1a9H5zbyPy-N-7" value="" style="endArrow=classic;startArrow=classic;html=1;rounded=0;exitX=1;exitY=0.5;exitDx=0;exitDy=0;entryX=0;entryY=0.5;entryDx=0;entryDy=0;" edge="1" parent="1" source="K-1_S2nW1a9H5zbyPy-N-11" target="K-1_S2nW1a9H5zbyPy-N-13">
          <mxGeometry width="50" height="50" relative="1" as="geometry">
            <mxPoint x="558.17" y="799.5" as="sourcePoint" />
            <mxPoint x="618.17" y="799.5" as="targetPoint" />
          </mxGeometry>
        </mxCell>
        <mxCell id="K-1_S2nW1a9H5zbyPy-N-8" value="" style="endArrow=classic;startArrow=classic;html=1;rounded=0;exitX=1;exitY=0.5;exitDx=0;exitDy=0;entryX=0;entryY=0.5;entryDx=0;entryDy=0;" edge="1" parent="1" source="K-1_S2nW1a9H5zbyPy-N-9" target="K-1_S2nW1a9H5zbyPy-N-11">
          <mxGeometry width="50" height="50" relative="1" as="geometry">
            <mxPoint x="318.16999999999996" y="799.5" as="sourcePoint" />
            <mxPoint x="378.16999999999996" y="799.5" as="targetPoint" />
          </mxGeometry>
        </mxCell>
        <mxCell id="K-1_S2nW1a9H5zbyPy-N-9" value="" style="whiteSpace=wrap;html=1;aspect=fixed;" vertex="1" parent="1">
          <mxGeometry x="138.42" y="710" width="180" height="180" as="geometry" />
        </mxCell>
        <mxCell id="K-1_S2nW1a9H5zbyPy-N-10" value="&lt;font style=&quot;background-color: rgb(0, 0, 0); font-size: 22px;&quot; color=&quot;#ffffff&quot;&gt;Bluetooth Interface (SPI/I2C)&lt;/font&gt;" style="text;align=center;html=1;verticalAlign=middle;whiteSpace=wrap;rounded=0;fillColor=#000000;strokeColor=#ae4132;" vertex="1" parent="1">
          <mxGeometry x="151.2300000000001" y="761.25" width="154.37" height="77.5" as="geometry" />
        </mxCell>
        <mxCell id="K-1_S2nW1a9H5zbyPy-N-11" value="" style="whiteSpace=wrap;html=1;aspect=fixed;" vertex="1" parent="1">
          <mxGeometry x="378.16999999999996" y="710" width="180" height="180" as="geometry" />
        </mxCell>
        <mxCell id="K-1_S2nW1a9H5zbyPy-N-12" value="&lt;font style=&quot;font-size: 20px;&quot; color=&quot;#ffffff&quot;&gt;Bluetooth Command Encoder/Decoder&lt;/font&gt;" style="text;align=center;html=1;verticalAlign=middle;whiteSpace=wrap;rounded=0;fillColor=#000000;strokeColor=#ae4132;" vertex="1" parent="1">
          <mxGeometry x="390.97999999999996" y="761.25" width="154.37" height="77.5" as="geometry" />
        </mxCell>
        <mxCell id="K-1_S2nW1a9H5zbyPy-N-13" value="" style="whiteSpace=wrap;html=1;aspect=fixed;" vertex="1" parent="1">
          <mxGeometry x="618.42" y="710" width="180" height="180" as="geometry" />
        </mxCell>
        <mxCell id="K-1_S2nW1a9H5zbyPy-N-14" value="&lt;font style=&quot;background-color: rgb(0, 0, 0); font-size: 24px;&quot; color=&quot;#ffffff&quot;&gt;&lt;font style=&quot;font-size: 24px;&quot;&gt;Encryption/&lt;br&gt;Decryption&lt;/font&gt;&lt;br&gt;&lt;/font&gt;" style="text;align=center;html=1;verticalAlign=middle;whiteSpace=wrap;rounded=0;fillColor=#000000;strokeColor=#ae4132;" vertex="1" parent="1">
          <mxGeometry x="631.24" y="761.25" width="154.37" height="77.5" as="geometry" />
        </mxCell>
        <mxCell id="K-1_S2nW1a9H5zbyPy-N-15" value="" style="whiteSpace=wrap;html=1;aspect=fixed;" vertex="1" parent="1">
          <mxGeometry x="858.42" y="710" width="180" height="180" as="geometry" />
        </mxCell>
        <mxCell id="K-1_S2nW1a9H5zbyPy-N-16" value="&lt;font style=&quot;background-color: rgb(0, 0, 0); font-size: 21px;&quot; color=&quot;#ffffff&quot;&gt;Command Encoder/Decoder&lt;/font&gt;" style="text;align=center;html=1;verticalAlign=middle;whiteSpace=wrap;rounded=0;fillColor=#000000;strokeColor=#ae4132;" vertex="1" parent="1">
          <mxGeometry x="862.21" y="761.25" width="172.43" height="78.75" as="geometry" />
        </mxCell>
      </root>
    </mxGraphModel>
  </diagram>
</mxfile>
